<?xml version="1.0" encoding="utf-8"?>
<!-- Generator: Adobe Illustrator 22.1.0, SVG Export Plug-In . SVG Version: 6.00 Build 0)  -->
<svg version="1.1" id="圖層_1" xmlns="http://www.w3.org/2000/svg" xmlns:xlink="http://www.w3.org/1999/xlink" x="0px" y="0px"
	 viewBox="0 0 150 156" style="enable-background:new 0 0 150 156;" xml:space="preserve">
<style type="text/css">
	.st0{fill:#FFFFFF;}
</style>
<g>
	<g>
		<path class="st0" d="M31,58.1c5.8,11,13.5,16.1,13.5,16.1c12.5,9.2,27.4,9.6,27.4,9.6c14.8,0.4,23.7-4,23.7-4
			c14.1-6.1,20.4-17.1,20.4-17.1c5.2-7.9,6-16.6,6.2-19.4c-0.1,3.5-0.8,13.5-0.8,13.5c-0.5,7.4-2.1,15-5.4,21.8
			c-5.9,12.1-18.2,19.6-31.3,22.2c-17.2,3.3-31.1-3.6-31.1-3.6C35.4,88.8,30.9,73,30.9,73c-1.9-5.5-2.7-14.6-2.7-14.6l-1.1-15.1
			C27.1,43.3,27.9,52.4,31,58.1z"/>
	</g>
	<g>
		<path class="st0" d="M33.8,30.9C31.2,39.2,33.5,48,33.5,48c0.7-7.4,7.5-14.7,7.5-14.7c1.6-1.8,3.4-3.4,5.4-4.8
			c2.7-2,5.7-3.7,8.8-5c3-1.2,6.1-2.2,9.3-2.9c3.4-0.7,6.8-0.9,10.2-0.9c1.5,0,3,0,4.5,0.2l3.3-5.1V0l-3.3,5.1
			c-3.6-0.5-7.6-0.2-7.6-0.2c-13.7,0.5-24.2,8.3-24.2,8.3C36.6,20.3,33.8,30.9,33.8,30.9z"/>
	</g>
	<g>
		<path class="st0" d="M108.5,34c0,0,5,4,7,12.3c0,0,2.3-7-0.2-15c0,0-1.8-6.7-6.8-12.1l-36.4,26l-4.9-3.7v14.8l5,3.7L108.5,34z"/>
	</g>
</g>
<g>
	<g>
		<path class="st0" d="M43.1,130.1c5.5-1,5.1-6.3,5.1-6.3c0-6.3-5.9-6.3-5.9-6.3H27.8v20.4H32V130h6.1l5.4,7.9h4.8L43.1,130.1z
			 M41.8,125.9H32v-4.4h9.8c0,0,2-0.1,2,2.2C43.8,126.1,41.8,125.9,41.8,125.9z"/>
	</g>
	<g>
		<polygon class="st0" points="62.3,125.3 55.7,137.9 51.1,137.9 62.3,116.8 73.4,137.9 68.8,137.9 		"/>
	</g>
	<g>
		<polygon class="st0" points="82.5,130 89.1,117.4 93.6,117.4 82.5,138.5 71.4,117.4 76,117.4 		"/>
	</g>
	<g>
		<polygon class="st0" points="97.8,117.4 101.9,117.4 101.9,137.9 97.8,137.9 		"/>
	</g>
	<g>
		<polygon class="st0" points="105.9,117.6 126.2,117.6 126.2,121.6 118.1,121.6 118.1,137.9 113.9,137.9 113.9,121.6 105.9,121.6 
					"/>
	</g>
	<g>
		<polygon class="st0" points="128.1,117.5 133.1,117.5 138.7,124.8 144.2,117.5 149.2,117.5 140.7,128.7 140.7,137.9 136.6,137.9 
			136.6,128.7 		"/>
	</g>
	<g>
		<path class="st0" d="M9.6,121.6h11.1v-4.1H9.6c0,0-9.6-0.2-9.6,10.1c0,10.4,9.6,10.1,9.6,10.1h11.1v-12.1H10.6v4.1h6.1v3.8H9.6
			c0,0-5.2,0.2-5.2-6C4.4,121.7,9.6,121.6,9.6,121.6z"/>
	</g>
</g>
<g>
	<path class="st0" d="M7.2,152.1c-0.1,0.8-0.5,1.4-1,1.8c-0.5,0.4-1.1,0.6-1.9,0.6c-0.4,0-0.8-0.1-1.2-0.2c-0.4-0.1-0.7-0.4-1-0.6
		c-0.4-0.4-0.6-0.8-0.7-1.3c-0.1-0.3-0.1-0.9-0.1-1.8c0-0.9,0-1.5,0.1-1.8c0.1-0.5,0.3-1,0.7-1.4c0.3-0.3,0.6-0.5,0.9-0.6
		c0.3-0.1,0.7-0.2,1.2-0.2c0.8,0,1.4,0.2,1.9,0.6c0.5,0.4,0.9,1.1,1,1.9H5.7c-0.1-0.3-0.2-0.6-0.4-0.8C5,148.1,4.7,148,4.4,148
		c-0.4,0-0.7,0.1-1,0.4c-0.1,0.2-0.2,0.4-0.3,0.7C3,149.4,3,149.9,3,150.6c0,0.7,0,1.3,0.1,1.5c0.1,0.3,0.2,0.5,0.3,0.7
		c0.2,0.3,0.6,0.4,1,0.4c0.4,0,0.7-0.1,0.9-0.3c0.2-0.2,0.4-0.5,0.4-0.8H7.2z"/>
	<path class="st0" d="M18.1,150.6c0,0.9,0,1.5-0.1,1.8c-0.1,0.5-0.3,1-0.7,1.4c-0.3,0.3-0.6,0.5-0.9,0.6c-0.3,0.1-0.7,0.2-1.2,0.2
		c-0.4,0-0.8-0.1-1.2-0.2c-0.3-0.1-0.7-0.4-0.9-0.6c-0.4-0.4-0.6-0.8-0.7-1.3c-0.1-0.3-0.1-0.9-0.1-1.8c0-0.9,0-1.5,0.1-1.8
		c0.1-0.5,0.3-1,0.7-1.4c0.3-0.3,0.6-0.5,0.9-0.6c0.3-0.1,0.7-0.2,1.2-0.2c0.4,0,0.8,0.1,1.2,0.2c0.3,0.1,0.7,0.4,0.9,0.6
		c0.4,0.4,0.6,0.8,0.7,1.3C18.1,149.2,18.1,149.8,18.1,150.6z M16.6,150.6c0-0.7,0-1.3-0.1-1.5c-0.1-0.3-0.2-0.5-0.3-0.7
		c-0.2-0.3-0.6-0.4-1-0.4c-0.2,0-0.4,0-0.6,0.1c-0.2,0.1-0.3,0.2-0.4,0.3c-0.2,0.2-0.3,0.4-0.3,0.7c0,0.3-0.1,0.8-0.1,1.5
		c0,0.8,0,1.3,0.1,1.5c0,0.3,0.1,0.5,0.3,0.7c0.2,0.3,0.6,0.4,1,0.4c0.4,0,0.7-0.1,1-0.4c0.1-0.2,0.2-0.4,0.3-0.7
		C16.5,151.8,16.6,151.3,16.6,150.6z"/>
	<path class="st0" d="M30.8,154.5h-1.5V150l-1.5,3h-1l-1.5-3v4.6h-1.5v-7.8h1.5l2,4.2l2-4.2h1.5V154.5z"/>
	<path class="st0" d="M43.7,154.5h-1.5V150l-1.5,3h-1l-1.5-3v4.6h-1.5v-7.8h1.5l2,4.2l2-4.2h1.5V154.5z"/>
	<path class="st0" d="M55.2,151.9c0,0.8-0.3,1.5-0.8,2c-0.5,0.5-1.2,0.8-2.1,0.8c-0.8,0-1.5-0.3-2.1-0.8c-0.5-0.5-0.8-1.2-0.8-2
		v-5.2H51v5.1c0,0.4,0.1,0.8,0.4,1.1c0.2,0.3,0.6,0.4,1,0.4c0.4,0,0.8-0.1,1-0.4c0.2-0.3,0.4-0.6,0.4-1.1v-5.1h1.5V151.9z"/>
	<path class="st0" d="M66.9,154.5h-1.4l-3.1-4.8v4.8h-1.5v-7.8h1.4l3.1,4.8v-4.8h1.5V154.5z"/>
	<path class="st0" d="M74.3,154.5h-1.5v-7.8h1.5V154.5z"/>
	<path class="st0" d="M85.7,152.1c-0.1,0.8-0.5,1.4-1,1.8c-0.5,0.4-1.1,0.6-1.9,0.6c-0.4,0-0.8-0.1-1.2-0.2c-0.4-0.1-0.7-0.4-1-0.6
		c-0.4-0.4-0.6-0.8-0.7-1.3c-0.1-0.3-0.1-0.9-0.1-1.8c0-0.9,0-1.5,0.1-1.8c0.1-0.5,0.3-1,0.7-1.4c0.3-0.3,0.6-0.5,0.9-0.6
		c0.3-0.1,0.7-0.2,1.2-0.2c0.8,0,1.4,0.2,1.9,0.6c0.5,0.4,0.9,1.1,1,1.9h-1.6c-0.1-0.3-0.2-0.6-0.4-0.8c-0.2-0.2-0.5-0.3-0.9-0.3
		c-0.4,0-0.7,0.1-1,0.4c-0.1,0.2-0.2,0.4-0.3,0.7c-0.1,0.3-0.1,0.8-0.1,1.5c0,0.7,0,1.3,0.1,1.5c0,0.3,0.2,0.5,0.3,0.7
		c0.2,0.3,0.6,0.4,1,0.4c0.4,0,0.7-0.1,0.9-0.3c0.2-0.2,0.4-0.5,0.4-0.8H85.7z"/>
	<path class="st0" d="M97.1,154.5h-1.6l-0.5-1.4h-2.8l-0.5,1.4h-1.6l2.9-7.8h1.2L97.1,154.5z M94.6,151.9l-1-2.9l-1,2.9H94.6z"/>
	<path class="st0" d="M107.1,148.1h-2v6.5h-1.5v-6.5h-2v-1.4h5.6V148.1z"/>
	<path class="st0" d="M113.9,154.5h-1.5v-7.8h1.5V154.5z"/>
	<path class="st0" d="M125.3,150.6c0,0.9,0,1.5-0.1,1.8c-0.1,0.5-0.3,1-0.7,1.4c-0.3,0.3-0.6,0.5-0.9,0.6c-0.3,0.1-0.7,0.2-1.2,0.2
		c-0.4,0-0.8-0.1-1.2-0.2c-0.3-0.1-0.7-0.4-0.9-0.6c-0.4-0.4-0.6-0.8-0.7-1.3c-0.1-0.3-0.1-0.9-0.1-1.8c0-0.9,0-1.5,0.1-1.8
		c0.1-0.5,0.3-1,0.7-1.4c0.3-0.3,0.6-0.5,0.9-0.6c0.3-0.1,0.7-0.2,1.2-0.2c0.4,0,0.8,0.1,1.2,0.2c0.3,0.1,0.7,0.4,0.9,0.6
		c0.4,0.4,0.6,0.8,0.7,1.3C125.2,149.2,125.3,149.8,125.3,150.6z M123.7,150.6c0-0.7,0-1.3-0.1-1.5c-0.1-0.3-0.2-0.5-0.3-0.7
		c-0.2-0.3-0.6-0.4-1-0.4c-0.2,0-0.4,0-0.6,0.1c-0.2,0.1-0.3,0.2-0.4,0.3c-0.2,0.2-0.3,0.4-0.3,0.7c0,0.3-0.1,0.8-0.1,1.5
		c0,0.8,0,1.3,0.1,1.5c0,0.3,0.1,0.5,0.3,0.7c0.2,0.3,0.6,0.4,1,0.4c0.4,0,0.7-0.1,1-0.4c0.1-0.2,0.2-0.4,0.3-0.7
		C123.7,151.8,123.7,151.3,123.7,150.6z"/>
	<path class="st0" d="M136.9,154.5h-1.4l-3.1-4.8v4.8h-1.5v-7.8h1.4l3.1,4.8v-4.8h1.5V154.5z"/>
	<path class="st0" d="M147.8,152.2c0,0.7-0.3,1.3-0.8,1.8c-0.5,0.4-1.2,0.6-2.1,0.6c-0.6,0-1.2-0.1-1.6-0.2
		c-0.5-0.2-0.9-0.4-1.2-0.8l1-1c0.2,0.2,0.5,0.4,0.8,0.5c0.3,0.1,0.7,0.2,1.1,0.2c0.9,0,1.4-0.3,1.4-1c0-0.3-0.1-0.5-0.2-0.7
		c-0.1-0.1-0.2-0.1-0.3-0.2c-0.1,0-0.2-0.1-0.4-0.1l-0.9-0.1c-0.7-0.1-1.2-0.3-1.5-0.6c-0.4-0.4-0.6-0.9-0.6-1.5
		c0-0.7,0.2-1.3,0.7-1.7c0.5-0.4,1.2-0.7,2-0.7c0.5,0,1,0.1,1.4,0.2c0.4,0.1,0.8,0.4,1.1,0.7l-1,1c-0.2-0.2-0.5-0.3-0.7-0.4
		c-0.3-0.1-0.6-0.1-0.9-0.1c-0.4,0-0.7,0.1-0.9,0.3c-0.2,0.2-0.3,0.4-0.3,0.7c0,0.1,0,0.2,0,0.3c0,0.1,0.1,0.2,0.2,0.3
		c0.2,0.2,0.4,0.3,0.7,0.3l0.9,0.1c0.7,0.1,1.2,0.3,1.5,0.6c0.2,0.2,0.4,0.4,0.5,0.7C147.7,151.6,147.8,151.9,147.8,152.2z"/>
</g>
</svg>
